<svg width="16" height="16" viewBox="0 0 16 16" fill="none" xmlns="http://www.w3.org/2000/svg">
<path d="M15.8542 13.2689C15.8542 13.2689 15.8542 13.2689 15.8538 13.2685C14.7887 11.0836 13.0031 7.98467 11.4279 5.25064C10.6036 3.81964 9.82494 2.46842 9.26209 1.44139C8.99647 0.95636 8.52444 0.666641 7.99966 0.666641C7.47487 0.666641 7.00287 0.95636 6.73725 1.44139C6.17406 2.46905 5.39506 3.82161 4.56984 5.25358C2.99556 7.98695 1.21066 11.0846 0.145844 13.2689C0.0491562 13.4678 0 13.6784 0 13.8942C0 14.6878 0.640969 15.3333 1.42909 15.3333L8 15.3327L14.5709 15.3333C15.359 15.3333 16 14.6878 16 13.8942C16 13.6784 15.9508 13.4678 15.8542 13.2689ZM8 14.0003C7.6325 14.0003 7.33334 13.7011 7.33334 13.3336C7.33334 12.9661 7.6325 12.667 8 12.667C8.3675 12.667 8.66666 12.9661 8.66666 13.3336C8.66666 13.7011 8.3675 14.0003 8 14.0003ZM8.66666 11.667C8.66666 11.8512 8.51756 12.0003 8.33331 12.0003H7.66666C7.48241 12.0003 7.33331 11.8512 7.33331 11.667V4.33364C7.33331 4.14939 7.48241 4.0003 7.66666 4.0003H8.33331C8.51756 4.0003 8.66666 4.14939 8.66666 4.33364V11.667Z" fill="white"/>
</svg>
