<svg width="16" height="12" viewBox="0 0 16 12" fill="none" xmlns="http://www.w3.org/2000/svg">
<path d="M0.333768 0.973625C2.52971 2.83334 6.38289 6.10516 7.51539 7.12531C7.66742 7.263 7.83049 7.333 7.99977 7.333C8.16871 7.333 8.33149 7.26366 8.48317 7.12663C9.61664 6.10547 13.4698 2.83334 15.6658 0.973625C15.8025 0.858062 15.8234 0.654937 15.7127 0.513656C15.4568 0.187187 15.0753 0 14.6664 0H1.33311C0.924268 0 0.542737 0.187188 0.286893 0.513688C0.176205 0.654938 0.197049 0.858062 0.333768 0.973625Z" fill="#29375A"/>
<path d="M15.8067 1.98149C15.6885 1.92649 15.5495 1.94567 15.4512 2.02967C13.0159 4.09411 9.90788 6.7403 8.93 7.62145C8.38116 8.11689 7.61944 8.11689 7.06931 7.6208C6.027 6.68167 2.53675 3.71455 0.548813 2.02964C0.449844 1.94564 0.310531 1.92711 0.193344 1.98145C0.0755312 2.03617 0 2.15402 0 2.28389V10.6667C0 11.4021 0.597969 12 1.33334 12H14.6667C15.402 12 16 11.4021 16 10.6667V2.28389C16 2.15402 15.9245 2.03586 15.8067 1.98149Z" fill="#29375A"/>
</svg>
